<svg xmlns="http://www.w3.org/2000/svg" version="1.1" xmlns:xlink="http://www.w3.org/1999/xlink" xmlns:svgjs="http://svgjs.com/svgjs" width="512" height="512" x="0" y="0" viewBox="0 0 32 32" style="enable-background:new 0 0 512 512" xml:space="preserve" class=""><g><g xmlns="http://www.w3.org/2000/svg" id="blog"><path d="m16.5771484 22.1655273 7.4228516-7.4228515v.2573242 9.5600586c0 1.3452148-1.0947266 2.4399414-2.4399414 2.4399414h-16.1201172c-1.3452148 0-2.4399414-1.0947266-2.4399414-2.4399414v-12.5600586h15.2573242l-5.9228516 5.9228516c-.331543.331543-.5625.7480469-.668457 1.2055664l-.9316406 4.0375977c-.0385742.1679688.0117188.34375.1337891.4658203.1177216.1177216.2897482.1731739.4658203.1337891l4.0375977-.9316406h.0004883c.4570312-.1059572.8735351-.3369142 1.205078-.6684572zm-3.5356445-3.5356445c-.1987305.1992188-.3374023.4492188-.4008789.7231445l-.7519531 3.2583008 3.2573242-.7514648c.2749023-.0634766.5249023-.2026367.7241211-.4013672l9.8476563-9.8476563-2.8286133-2.8286133zm6.2158203-7.6298828h-16.2573242v-3.5600586c0-1.3452148 1.0947266-2.4399414 2.4399414-2.4399414h16.1201172c.9992676 0 1.8503418.6088257 2.2260742 1.4711914-1.8605614 1.8605614-2.6751728 2.6751728-4.5288086 4.5288086zm-12.2573242-2.5c0-.2763672-.2236328-.5-.5-.5h-1c-.2763672 0-.5.2236328-.5.5s.2236328.5.5.5h1c.2763672 0 .5-.2236328.5-.5zm3 0c0-.2763672-.2236328-.5-.5-.5h-1c-.2763672 0-.5.2236328-.5.5s.2236328.5.5.5h1c.2763672 0 .5-.2236328.5-.5zm3 0c0-.2763672-.2236328-.5-.5-.5h-1c-.2763672 0-.5.2236328-.5.5s.2236328.5.5.5h1c.2763672 0 .5-.2236328.5-.5zm14.4853516.6362305-2.1210938-2.121582c-.0839844-.0839844-.2128906-.1318359-.3535156-.1318359-.1411133 0-.2700195.0478516-.3540039.1318359l-1.0605469 1.0605469 2.8286133 2.8286133 1.0605469-1.0605469c.0957031-.0961915.1464843-.2182618.1464843-.3535157s-.0507812-.2573242-.1464843-.3535156z" fill="#ffffff" data-original="#000000"></path></g></g></svg>